<svg width="116" height="36" viewBox="0 0 116 36" fill="none" xmlns="http://www.w3.org/2000/svg">
<g clip-path="url(#clip0_10_125)">
<path fill-rule="evenodd" clip-rule="evenodd" d="M71.9641 27.8147C65.2232 32.761 55.4526 35.4 47.0403 35.4C35.2448 35.4 24.6259 31.0569 16.5923 23.8335C15.9612 23.2655 16.5267 22.4914 17.2841 22.9337C25.9539 27.9554 36.6738 30.9765 47.7472 30.9765C55.2152 30.9765 63.4306 29.4383 70.9845 26.2463C72.1257 25.7638 73.08 26.9903 71.9641 27.8147Z" fill="white"/>
<path fill-rule="evenodd" clip-rule="evenodd" d="M74.7666 24.6227C73.9082 23.5269 69.0708 24.105 66.8996 24.3613C66.2381 24.4418 66.1371 23.8687 66.733 23.4565C70.5857 20.7572 76.9075 21.5363 77.6447 22.4411C78.3819 23.351 77.4529 29.6595 73.8324 32.6705C73.277 33.1329 72.7468 32.8866 72.9942 32.2734C73.8072 30.2526 75.63 25.7236 74.7666 24.6227Z" fill="white"/>
<path fill-rule="evenodd" clip-rule="evenodd" d="M67.0511 4.40022V1.77628C67.0511 1.37917 67.3541 1.11275 67.7176 1.11275H79.5181C79.8968 1.11275 80.1997 1.38419 80.1997 1.77628V4.02322C80.1947 4.40022 79.8766 4.89284 79.311 5.67198L73.1962 14.3632C75.4684 14.3079 77.8669 14.6447 79.9271 15.8008C80.3916 16.0622 80.5179 16.4442 80.5532 16.8212V19.6211C80.5532 20.0032 80.129 20.4505 79.6847 20.2193C76.0542 18.3242 71.232 18.1181 67.2177 20.2394C66.8087 20.4606 66.3795 20.0182 66.3795 19.6362V16.9771C66.3795 16.5498 66.3846 15.8209 66.8138 15.1725L73.8981 5.05873H67.7328C67.354 5.05873 67.0511 4.79231 67.0511 4.40022Z" fill="white"/>
<path fill-rule="evenodd" clip-rule="evenodd" d="M24.0049 20.7722H20.4148C20.0714 20.7471 19.7987 20.4907 19.7735 20.164V1.82152C19.7735 1.45457 20.0815 1.16302 20.4653 1.16302H23.813C24.1614 1.17809 24.4391 1.44451 24.4644 1.77628V4.17402H24.53C25.4036 1.8567 27.0446 0.775959 29.2563 0.775959C31.5033 0.775959 32.907 1.8567 33.9169 4.17402C34.7854 1.8567 36.7597 0.775959 38.8754 0.775959C40.3801 0.775959 42.0262 1.39425 43.0311 2.78162C44.1672 4.32482 43.9349 6.56674 43.9349 8.53219L43.9299 20.1087C43.9299 20.4757 43.6218 20.7722 43.2381 20.7722H39.653C39.2945 20.7471 39.0067 20.4606 39.0067 20.1087V10.387C39.0067 9.61293 39.0774 7.68267 38.9057 6.94877C38.6381 5.71723 37.8352 5.37038 36.795 5.37038C35.9265 5.37038 35.0177 5.94845 34.649 6.87337C34.2804 7.79829 34.3158 9.34651 34.3158 10.387V20.1087C34.3158 20.4757 34.0078 20.7722 33.624 20.7722H30.0389C29.6754 20.7471 29.3926 20.4606 29.3926 20.1087L29.3876 10.387C29.3876 8.34117 29.7259 5.33017 27.1759 5.33017C24.5957 5.33017 24.6967 8.26577 24.6967 10.387V20.1087C24.6967 20.4757 24.3887 20.7722 24.0049 20.7722Z" fill="white"/>
<path fill-rule="evenodd" clip-rule="evenodd" d="M90.3591 0.775959C95.6863 0.775959 98.5695 5.33017 98.5695 11.1209C98.5695 16.7157 95.3833 21.1543 90.3591 21.1543C85.128 21.1543 82.2801 16.6001 82.2801 10.9249C82.2801 5.21455 85.1633 0.775959 90.3591 0.775959ZM90.3894 4.52087C87.7435 4.52087 87.5769 8.10994 87.5769 10.3468C87.5769 12.5887 87.5416 17.3742 90.3591 17.3742C93.1414 17.3742 93.2726 13.5137 93.2726 11.1612C93.2726 9.61293 93.207 7.7631 92.7374 6.2953C92.3335 5.01851 91.5306 4.52087 90.3894 4.52087Z" fill="white"/>
<path fill-rule="evenodd" clip-rule="evenodd" d="M105.477 20.7722H101.902C101.544 20.7471 101.256 20.4606 101.256 20.1087L101.251 1.7612C101.281 1.42441 101.579 1.16302 101.942 1.16302H105.27C105.583 1.17809 105.841 1.38922 105.911 1.67574V4.48065H105.977C106.982 1.97232 108.391 0.775959 110.87 0.775959C112.481 0.775959 114.051 1.35403 115.061 2.93745C116 4.40525 116 6.87337 116 8.6478V20.1942C115.96 20.5159 115.662 20.7722 115.308 20.7722H111.708C111.38 20.7471 111.107 20.5058 111.072 20.1942V10.2312C111.072 8.22556 111.304 5.28995 108.825 5.28995C107.951 5.28995 107.148 5.87305 106.749 6.75775C106.245 7.87871 106.179 8.99465 106.179 10.2312V20.1087C106.174 20.4757 105.861 20.7722 105.477 20.7722Z" fill="white"/>
<path fill-rule="evenodd" clip-rule="evenodd" d="M57.644 12.0107C57.644 13.4031 57.6793 14.5642 56.9724 15.8008C56.4018 16.8062 55.493 17.4245 54.4881 17.4245C53.1096 17.4245 52.3017 16.3789 52.3017 14.8357C52.3017 11.7895 55.0436 11.2366 57.644 11.2366V12.0107ZM61.2644 20.722C61.0271 20.9331 60.6837 20.9482 60.4161 20.8074C59.2245 19.8222 59.0073 19.3648 58.356 18.4248C56.3867 20.4254 54.988 21.0236 52.4381 21.0236C49.4135 21.0236 47.0655 19.1687 47.0655 15.454C47.0655 12.5536 48.6409 10.5781 50.8929 9.61293C52.842 8.75839 55.5636 8.60759 57.644 8.37134V7.90888C57.644 7.05936 57.7096 6.05401 57.2047 5.32012C56.7704 4.66161 55.9322 4.39017 55.19 4.39017C53.8216 4.39017 52.6047 5.08889 52.3068 6.53658C52.2462 6.85829 52.0089 7.17498 51.6806 7.19006L48.2016 6.81808C47.9087 6.75273 47.5805 6.51647 47.6664 6.0691C48.4642 1.86676 52.2815 0.600025 55.6949 0.600025C57.442 0.600025 59.7244 1.06248 61.1028 2.37948C62.8499 4.00311 62.6833 6.16963 62.6833 8.52716V14.0968C62.6833 15.7707 63.3801 16.5046 64.0365 17.4094C64.2638 17.7311 64.3143 18.1181 64.0214 18.3594C63.2892 18.9677 61.9865 20.0987 61.2695 20.732L61.2644 20.722Z" fill="white"/>
<path fill-rule="evenodd" clip-rule="evenodd" d="M10.5785 12.0107C10.5785 13.4031 10.6138 14.5642 9.90693 15.8008C9.33635 16.8061 8.43251 17.4244 7.42263 17.4244C6.04414 17.4244 5.24128 16.3789 5.24128 14.8357C5.24128 11.7895 7.98311 11.2365 10.5785 11.2365V12.0107ZM14.1989 20.722C13.9616 20.9331 13.6182 20.9482 13.3506 20.8074C12.159 19.8222 11.9469 19.3647 11.2905 18.4247C9.3212 20.4254 7.92757 21.0236 5.37257 21.0236C2.35302 21.0236 0 19.1687 0 15.454C0 12.5535 1.58046 10.578 3.82745 9.61291C5.77652 8.75836 8.49815 8.60756 10.5785 8.37131V7.90885C10.5785 7.05933 10.6441 6.05399 10.1443 5.32009C9.70496 4.66159 8.86676 4.39014 8.12954 4.39014C6.76116 4.39014 5.5392 5.08886 5.24128 6.53655C5.18069 6.85827 4.94337 7.17495 4.62021 7.19003L1.13612 6.81805C0.84325 6.75271 0.520088 6.51645 0.600878 6.06907C1.40373 1.86674 5.21603 0.599998 8.62943 0.599998C10.3765 0.599998 12.6589 1.06246 14.0373 2.37946C15.7844 4.00309 15.6178 6.1696 15.6178 8.52714V14.0967C15.6178 15.7706 16.3146 16.5045 16.9711 17.4093C17.2033 17.7311 17.2538 18.1181 16.9609 18.3594C16.2288 18.9676 14.926 20.0986 14.209 20.732L14.1989 20.722Z" fill="white"/>
</g>
<defs>
<clipPath id="clip0_10_125">
<rect width="116" height="34.8" fill="white" transform="translate(0 0.599998)"/>
</clipPath>
</defs>
</svg>
