<svg width="86" height="50" viewBox="0 0 86 50" fill="none" xmlns="http://www.w3.org/2000/svg">
<g clip-path="url(#clip0_10_155)">
<path d="M68.6321 36.2903H85.7143V50H68.531L64.2857 45.9677V40.3226L68.6321 36.2903Z" fill="white"/>
<path d="M15.3639 10.7863L15.6671 10.6855C15.8693 10.5847 16.1725 10.3831 16.4757 10.1815C16.779 9.97984 17.0822 9.67742 17.3854 9.375C17.6887 9.07258 17.8908 8.66935 18.1941 8.06452C18.3962 7.56048 18.4973 6.95565 18.4973 6.35081C18.4973 4.83871 17.7898 3.42742 16.3747 2.31855C14.9596 1.20968 13.0391 0.604839 10.6132 0.604839H0V22.1774H11.2197C14.0499 22.1774 20.0135 21.6734 20.0135 16.0282C20.0135 11.6935 15.465 10.7863 15.3639 10.7863ZM6.97439 5.64516H9.60243C10.1078 5.64516 10.5121 5.74597 10.9164 6.14919C11.2197 6.45161 11.4218 6.85484 11.4218 7.25806C11.4218 7.66129 11.2197 8.06452 10.9164 8.36694C10.5121 8.66935 10.1078 8.87097 9.60243 8.87097H6.97439V5.64516ZM11.8261 16.6331C11.4218 17.0363 10.9164 17.2379 10.31 17.2379H6.97439V13.4073H10.31C10.9164 13.4073 11.4218 13.6089 11.8261 14.0121C12.2305 14.4153 12.4326 14.8185 12.4326 15.4234C12.4326 15.8266 12.2305 16.2298 11.8261 16.6331Z" fill="white"/>
<path d="M20.9232 34.6774L21.2264 34.5766C21.4286 34.4758 21.7318 34.2742 22.035 34.0726C22.3383 33.871 22.6415 33.5685 22.9447 33.2661C23.248 32.9637 23.4501 32.5605 23.7534 31.9556C23.9555 31.4516 24.0566 30.8468 24.0566 30.2419C24.0566 28.7298 23.3491 27.3185 21.934 26.2097C20.5189 25.1008 18.5984 24.496 16.1725 24.496H5.5593V46.0685H16.6779C19.5081 46.0685 25.4717 45.5645 25.4717 39.9194C25.5728 35.5847 21.0243 34.7782 20.9232 34.6774ZM12.6348 29.5363H15.1617C15.6671 29.5363 16.0714 29.7379 16.4757 30.0403C16.779 30.3427 16.9811 30.746 16.9811 31.1492C16.9811 31.5524 16.779 31.9556 16.4757 32.2581C16.1725 32.5605 15.7682 32.7621 15.1617 32.7621H12.6348V29.5363ZM17.3854 40.5242C16.9811 40.9274 16.4757 41.129 15.8693 41.129H12.6348V37.2984H15.8693C16.4757 37.2984 16.9811 37.5 17.3854 37.9032C17.7898 38.3065 17.9919 38.7097 17.9919 39.3145C17.9919 39.7177 17.7898 40.121 17.3854 40.5242Z" fill="white"/>
<path d="M37.9043 16.9355H27.4933V13.6089H35.9838V8.66935H27.4933V5.84677H37.9043V0.604839H20.4178V22.1774H37.9043V16.9355Z" fill="white"/>
<path d="M55.7952 0.604839V5.84677H61.5566V22.1774H68.531V5.84677H74.1914V0.604839H55.7952Z" fill="white"/>
<path d="M47.9111 16.6331C47.5067 16.9355 47.0014 17.1371 46.2938 17.1371C45.5863 17.1371 44.8787 16.9355 44.1712 16.5323C43.4636 16.129 42.9582 15.8266 42.655 15.625C42.5539 15.5242 42.3518 15.4234 42.2507 15.3226L38.1065 19.254L38.4097 19.5565C38.6119 19.8589 39.0162 20.1613 39.5216 20.4637C40.027 20.8669 40.6334 21.1694 41.341 21.5726C42.0485 21.9758 42.8571 22.2782 43.969 22.4798C44.9798 22.7823 46.0917 22.8831 47.2035 22.8831C49.9326 22.8831 52.1563 22.1774 53.7736 20.7661C55.3908 19.3548 56.1995 17.6411 56.1995 15.625C56.1995 14.5161 55.9973 13.4073 55.4919 12.6008C54.9865 11.6935 54.4811 11.0887 53.7736 10.5847C53.066 10.1815 52.3585 9.77823 51.5499 9.375C50.8423 9.07258 50.1348 8.77016 49.4272 8.66936C49.3262 8.66936 49.3262 8.66936 49.2251 8.66936C48.5175 8.46774 47.9111 8.26613 47.5067 7.96371C47.0014 7.66129 46.7992 7.45968 46.7992 7.05645C46.7992 6.65323 47.0014 6.35081 47.3046 6.04839C47.6078 5.74597 48.1132 5.64516 48.7197 5.64516C50.1348 5.64516 51.0445 6.25 51.4488 6.75403L55.593 2.82258L55.4919 2.72177C55.2898 2.52016 54.9865 2.21774 54.5822 1.91532C54.1779 1.6129 53.6725 1.31048 53.066 1.00806C52.4596 0.705645 51.752 0.403226 50.7412 0.201613C49.7305 0.100806 48.7197 0 47.7089 0C45.0809 0 43.0593 0.705645 41.4421 2.01613C39.8248 3.42742 39.0162 5.04032 39.0162 6.85484C39.0162 7.8629 39.2183 8.77016 39.5216 9.47581C39.8248 10.2823 40.3302 10.8871 40.8356 11.3911C41.341 11.8952 41.9474 12.2984 42.655 12.6008C43.2615 12.9032 43.7669 13.1048 44.3733 13.3065C44.4744 13.3065 44.5755 13.4073 44.6766 13.4073C45.3841 13.6089 45.9906 13.8105 46.496 14.0121C47.0014 14.2137 47.5067 14.4153 47.81 14.6169C48.1132 14.8185 48.3154 15.121 48.3154 15.3226C48.5175 15.9274 48.3154 16.3306 47.9111 16.6331Z" fill="white"/>
<path d="M37.9043 37.2984C37.9043 38.7097 36.7925 39.9194 35.2763 39.9194C33.8612 39.9194 32.6483 38.8105 32.6483 37.2984V24.496H25.6739V36.996C25.6739 42.1371 29.8181 46.371 35.0741 46.371H35.4784C40.6334 46.371 44.8787 42.2379 44.8787 36.996V24.496H37.9043V37.2984Z" fill="white"/>
<path d="M56.8059 31.8548L52.2574 24.496H45.283L53.3693 38.4073V46.0685H60.3437V38.4073L68.4299 24.496H61.4555L56.8059 31.8548Z" fill="white"/>
<path d="M67.7224 43.1452C67.7224 43.6492 67.318 43.9516 66.9137 43.9516C66.5094 43.9516 66.1051 43.5484 66.1051 43.1452C66.1051 42.6411 66.5094 42.3387 66.9137 42.3387C67.318 42.3387 67.7224 42.6411 67.7224 43.1452Z" fill="white"/>
<path d="M68.6321 30.746H68.1267V30.5444H69.3396V30.746H68.8342V32.2581H68.6321V30.746ZM69.6429 30.5444H69.9461L70.4515 31.8548L70.9569 30.5444H71.2601V32.1573H71.0579V30.746L70.4515 32.1573H70.3504L69.7439 30.746V32.1573H69.5418V30.5444H69.6429Z" fill="white"/>
</g>
<defs>
<clipPath id="clip0_10_155">
<rect width="85.7143" height="50" fill="white"/>
</clipPath>
</defs>
</svg>
