<svg width="158" height="46" viewBox="0 0 158 46" fill="none" xmlns="http://www.w3.org/2000/svg">
<g clip-path="url(#clip0_10_167)">
<path d="M54.9664 25.5235C53.6312 24.7824 52.9285 24.1824 52.9285 23.3353C52.9285 22.2412 53.8772 21.5706 55.3881 21.5706C57.1449 21.5706 58.691 22.3118 58.691 22.3118L59.9208 18.5353C59.9208 18.5353 58.7964 17.6529 55.4583 17.6529C50.8202 17.6529 47.5876 20.3353 47.5876 24.0765C47.5876 26.1941 49.0985 27.8176 51.1013 28.9824C52.7176 29.9 53.2798 30.5706 53.2798 31.5235C53.2798 32.5471 52.4717 33.3588 50.9608 33.3588C48.712 33.3588 46.6037 32.1941 46.6037 32.1941L45.3036 35.9706C45.3036 35.9706 47.2713 37.2765 50.5391 37.2765C55.3178 37.2765 58.7261 34.9118 58.7261 30.6765C58.7964 28.3471 57.0395 26.7235 54.9664 25.5235Z" fill="white"/>
<path d="M74.0109 17.5824C71.6567 17.5824 69.8295 18.7118 68.3889 20.4059L68.3186 20.3706L70.3566 9.64117H65.0157L59.8505 36.9235H65.1563L66.9131 27.6059C67.6159 24.0765 69.4079 21.9235 71.0945 21.9235C72.2892 21.9235 72.7459 22.7353 72.7459 23.9C72.7459 24.6412 72.6757 25.5235 72.5 26.2647L70.4971 36.9588H75.8029L77.876 25.9471C78.122 24.7823 78.2625 23.4059 78.2625 22.4529C78.3328 19.3824 76.7867 17.5824 74.0109 17.5824Z" fill="white"/>
<path d="M90.3498 17.5824C83.9548 17.5824 79.7031 23.3706 79.7031 29.8294C79.7031 33.9588 82.233 37.3118 87.0117 37.3118C93.3013 37.3118 97.5178 31.6647 97.5178 25.0647C97.5529 21.2176 95.3393 17.5824 90.3498 17.5824ZM87.7496 33.1824C85.9225 33.1824 85.1846 31.6294 85.1846 29.6882C85.1846 26.6176 86.7658 21.6412 89.647 21.6412C91.5444 21.6412 92.1418 23.2647 92.1418 24.8529C92.1418 28.1706 90.5606 33.1824 87.7496 33.1824Z" fill="white"/>
<path d="M111.151 17.5824C107.567 17.5824 105.529 20.7588 105.529 20.7588H105.459L105.775 17.9H101.067C100.821 19.8412 100.399 22.7706 99.9774 24.9941L96.288 44.4765H101.594L103.07 36.5706H103.175C103.175 36.5706 104.264 37.2765 106.302 37.2765C112.557 37.2765 116.633 30.8529 116.633 24.3588C116.633 20.7941 115.051 17.5824 111.151 17.5824ZM106.091 33.2882C104.721 33.2882 103.913 32.5118 103.913 32.5118L104.791 27.5353C105.424 24.2176 107.145 21.9941 108.973 21.9941C110.589 21.9941 111.081 23.5118 111.081 24.9235C111.081 28.3471 109.043 33.2882 106.091 33.2882Z" fill="white"/>
<path d="M124.222 9.92353C122.536 9.92353 121.165 11.2647 121.165 13.0294C121.165 14.6176 122.149 15.7118 123.66 15.7118H123.73C125.382 15.7118 126.822 14.5823 126.858 12.6059C126.893 11.0176 125.839 9.92353 124.222 9.92353Z" fill="white"/>
<path d="M116.773 36.9235H122.114L125.733 18.0059H120.357L116.773 36.9235Z" fill="white"/>
<path d="M139.226 17.9706H135.536L135.712 17.0882C136.028 15.2529 137.083 13.6294 138.875 13.6294C139.823 13.6294 140.561 13.9118 140.561 13.9118L141.615 9.74705C141.615 9.74705 140.702 9.28823 138.734 9.28823C136.837 9.28823 134.974 9.81764 133.534 11.0529C131.706 12.6059 130.863 14.8294 130.442 17.0882L130.301 17.9706H127.841L127.068 21.9941H129.528L126.717 36.9235H132.023L134.834 21.9941H138.488L139.226 17.9706Z" fill="white"/>
<path d="M152.016 18.0059C152.016 18.0059 148.678 26.4059 147.202 30.9941H147.132C147.026 29.5118 145.832 18.0059 145.832 18.0059H140.245L143.442 35.3706C143.513 35.7588 143.478 36.0059 143.337 36.2529C142.704 37.4529 141.686 38.6176 140.456 39.4647C139.472 40.2059 138.347 40.6647 137.469 40.9823L138.945 45.5C140.034 45.2529 142.248 44.3706 144.145 42.6059C146.57 40.3118 148.818 36.8176 151.102 32.0176L157.603 18.0059H152.016Z" fill="white"/>
<path d="M26.9971 5.72353C26.9971 5.72353 26.5051 5.8647 25.697 6.11176C25.5564 5.65294 25.3456 5.12353 25.0645 4.55882C24.1509 2.79412 22.7806 1.84117 21.1643 1.84117C21.0588 1.84117 20.9534 1.84117 20.8129 1.87647C20.7777 1.80588 20.7075 1.77059 20.6723 1.7C19.9696 0.923528 19.056 0.570586 17.9668 0.605881C15.8585 0.676469 13.7503 2.19412 12.0637 4.91176C10.869 6.81765 9.95543 9.21764 9.70946 11.0882C7.28498 11.8294 5.59839 12.3588 5.56325 12.3941C4.33344 12.7824 4.2983 12.8176 4.15775 13.9824C4.05234 14.8647 0.819702 39.7118 0.819702 39.7118L27.3836 44.3353V5.68823C27.1727 5.68823 27.0673 5.72353 26.9971 5.72353ZM20.848 7.62941C19.4425 8.05294 17.8965 8.54706 16.3856 9.00588C16.8072 7.34706 17.6505 5.68823 18.6344 4.59412C19.0209 4.20588 19.5479 3.74706 20.1453 3.4647C20.7426 4.73529 20.8832 6.4647 20.848 7.62941ZM17.9668 2.05294C18.4587 2.05294 18.8803 2.15882 19.2317 2.37059C18.6695 2.65294 18.1073 3.11176 17.5802 3.64117C16.245 5.08823 15.226 7.34706 14.8044 9.5C13.5394 9.88823 12.2745 10.2765 11.115 10.6294C11.888 7.24117 14.7341 2.12353 17.9668 2.05294ZM13.8908 21.4647C14.0314 23.7235 19.9696 24.2176 20.321 29.5471C20.5669 33.7471 18.1073 36.6059 14.5584 36.8176C10.2717 37.1 7.91746 34.5588 7.91746 34.5588L8.83103 30.6765C8.83103 30.6765 11.1852 32.4765 13.0827 32.3353C14.3125 32.2647 14.7692 31.2412 14.7341 30.5353C14.5584 27.5706 9.70946 27.7471 9.39323 22.8765C9.11213 18.7824 11.7826 14.6529 17.6857 14.2647C19.9696 14.1235 21.1291 14.6882 21.1291 14.6882L19.7939 19.7706C19.7939 19.7706 18.283 19.0647 16.491 19.2059C13.8908 19.3824 13.8557 21.0412 13.8908 21.4647ZM22.2535 7.20588C22.2535 6.14706 22.113 4.62941 21.621 3.35882C23.2374 3.67647 24.0104 5.47647 24.3618 6.57059C23.7293 6.74706 23.0265 6.95882 22.2535 7.20588Z" fill="white"/>
<path d="M28.1917 44.2647L39.2249 41.5118C39.2249 41.5118 34.4813 9.28823 34.4462 9.07647C34.411 8.8647 34.2354 8.72353 34.0597 8.72353C33.884 8.72353 30.7919 8.65294 30.7919 8.65294C30.7919 8.65294 28.8945 6.81765 28.1917 6.11176V44.2647Z" fill="white"/>
</g>
<defs>
<clipPath id="clip0_10_167">
<rect width="156.818" height="45" fill="white" transform="translate(0.714294 0.5)"/>
</clipPath>
</defs>
</svg>
