<svg width="75" height="71" viewBox="0 0 75 71" fill="none" xmlns="http://www.w3.org/2000/svg">
<path d="M34.6489 0.818797C34.7445 2.27432 34.7233 3.74047 34.5852 5.18538C34.5639 5.36599 34.5533 5.5466 34.5214 5.71659C34.5108 5.80158 34.5002 5.88658 34.4896 5.97157C34.4789 6.09907 34.5214 5.76972 34.4896 5.96095C34.4789 6.01407 34.4789 6.07782 34.4683 6.13094C34.4152 6.49216 34.3515 6.85338 34.2877 7.21461C34.1496 7.93706 33.969 8.65952 33.7565 9.36072C33.6503 9.69008 33.544 10.0194 33.4271 10.3488C33.3634 10.5081 33.3102 10.6675 33.2359 10.8269C33.2252 10.8587 33.1827 10.9119 33.1827 10.9544C33.1827 10.8481 33.2465 10.8163 33.204 10.8906C33.1615 10.9756 33.1296 11.0606 33.0871 11.1456C32.8322 11.7087 32.5241 12.2505 32.1841 12.7605C32.1097 12.8774 32.0247 12.9942 31.9397 13.1111C31.8972 13.1748 31.8441 13.2386 31.8016 13.3023C31.7803 13.3236 31.7591 13.3554 31.7485 13.3767C31.8547 13.1855 31.791 13.3236 31.7591 13.3661C31.5679 13.6104 31.3554 13.8548 31.1429 14.0885C30.9304 14.3116 30.7179 14.5241 30.4842 14.7366C30.3779 14.8322 30.2611 14.9278 30.1442 15.0235C30.0911 15.066 30.038 15.1085 29.9849 15.151C29.8999 15.2147 30.1442 15.0235 30.0167 15.1297C29.9742 15.1616 29.9423 15.1828 29.8999 15.2147C29.6236 15.4166 29.3368 15.6078 29.0393 15.7778C28.7418 15.9478 28.4337 16.0753 28.1256 16.2346C28.1363 16.224 28.3062 16.1603 28.1893 16.2028C28.1468 16.224 28.1044 16.2346 28.0619 16.2559C27.9769 16.2878 27.8919 16.3196 27.7963 16.3515C27.6369 16.4046 27.4775 16.4577 27.3075 16.5002C26.9782 16.5959 26.6382 16.6596 26.2982 16.7021C26.1176 16.7233 25.9051 16.9146 25.8201 17.0633C25.7351 17.2227 25.7033 17.3927 25.7245 17.5733C25.7777 17.9558 26.107 18.2639 26.5107 18.2639C27.2863 18.2532 28.0619 18.2532 28.8374 18.3064C29.018 18.317 29.188 18.3382 29.3686 18.3595C29.3793 18.3595 29.5705 18.3914 29.443 18.3701C29.3049 18.3489 29.4961 18.3807 29.5174 18.3807C29.613 18.3914 29.7086 18.4126 29.8042 18.4339C30.1867 18.5082 30.5586 18.6038 30.9198 18.7207C30.9835 18.742 31.0579 18.7738 31.1216 18.7951C31.1535 18.8057 31.196 18.827 31.2279 18.8376C31.2916 18.8588 31.3554 18.9226 31.1854 18.8163C31.3129 18.9013 31.4723 18.9438 31.6104 19.0182C31.876 19.1563 32.131 19.305 32.3647 19.475C32.4285 19.5175 32.4922 19.56 32.5559 19.6132C32.5772 19.6344 32.6091 19.6557 32.6303 19.6663C32.7366 19.7406 32.5878 19.6344 32.5772 19.6238C32.6834 19.73 32.8215 19.8256 32.9384 19.9213C33.1721 20.1337 33.3952 20.3462 33.6077 20.58C33.7033 20.6862 33.799 20.7924 33.884 20.8987C33.9265 20.9518 33.969 21.0049 34.0221 21.0687C34.0859 21.1537 33.9052 20.9093 34.0008 21.0368C34.0327 21.0793 34.0539 21.1112 34.0858 21.1537C34.2664 21.398 34.4258 21.653 34.5852 21.908C34.7445 22.1736 34.8933 22.4498 35.0314 22.7261C35.0952 22.8642 35.1589 23.0023 35.2226 23.1404C35.2333 23.1723 35.2439 23.2042 35.2651 23.2254C35.1801 23.0236 35.2332 23.1404 35.2545 23.1935C35.2864 23.2785 35.3183 23.3529 35.3501 23.4379C35.5945 24.0754 35.7751 24.7234 35.9132 25.3821C35.9557 25.5734 35.9876 25.754 36.0195 25.9452C36.0301 26.0196 36.0407 26.1046 36.0619 26.179C36.0726 26.2427 36.0832 26.2958 36.0832 26.3596C36.0832 26.3277 36.0726 26.2958 36.0726 26.264C36.0726 26.3065 36.0832 26.3383 36.0832 26.3808C36.1257 26.7633 36.1682 27.1352 36.1894 27.5176C36.3063 29.2706 36.2001 31.0343 36.0832 32.7766C36.062 33.1697 36.4019 33.5097 36.7738 33.5628C37.1669 33.616 37.5281 33.3716 37.6449 32.9891C38.4843 30.3224 38.5905 27.507 39.2174 24.7978C39.3555 24.1922 39.5148 23.5866 39.7273 22.9917C39.7698 22.8642 39.823 22.7367 39.8655 22.6198C39.8867 22.5561 39.9292 22.4923 39.9504 22.418C39.9504 22.4286 39.876 22.5986 39.9292 22.4817C39.9398 22.4498 39.9611 22.4073 39.9717 22.3755C40.0886 22.1205 40.2054 21.8761 40.3329 21.6318C40.5879 21.1431 40.8854 20.6756 41.2147 20.24C41.236 20.2187 41.2572 20.1869 41.2678 20.1656C41.1616 20.325 41.1935 20.2612 41.2253 20.2187C41.2678 20.1656 41.3104 20.1125 41.3529 20.0594C41.4379 19.9531 41.5334 19.8469 41.6291 19.7406C41.8097 19.5388 42.0009 19.3476 42.1922 19.1776C42.309 19.0713 42.4153 18.9757 42.5427 18.8801C42.564 18.8588 42.5853 18.8482 42.6171 18.827C42.4259 18.9757 42.564 18.8695 42.5959 18.8376C42.6596 18.7951 42.7128 18.7526 42.7765 18.7101C43.0102 18.5507 43.2546 18.402 43.5096 18.2745C43.5733 18.2426 43.6477 18.2108 43.7114 18.1789C43.7433 18.1683 43.7646 18.1576 43.7964 18.147C43.9452 18.0833 43.6371 18.2107 43.7752 18.1576C43.9133 18.1045 44.0514 18.0514 44.2001 18.0089C44.3489 17.9664 44.487 17.9239 44.6358 17.892C44.6995 17.8814 44.7739 17.8602 44.8376 17.8495C44.9014 17.8389 45.1988 17.7964 44.9226 17.8283C45.1351 17.7964 45.337 17.7645 45.4857 17.5945C45.6026 17.4671 45.6769 17.3183 45.7088 17.1377C45.7619 16.7765 45.5282 16.3409 45.1351 16.2665C44.827 16.2028 44.5189 16.1284 44.2108 16.0328C44.0727 15.9903 43.9451 15.9372 43.807 15.8947C43.7327 15.8628 43.6583 15.8309 43.584 15.8097C43.8283 15.9053 43.552 15.7884 43.4883 15.7672C42.9252 15.5016 42.3834 15.1828 41.8841 14.811C41.8628 14.7897 41.8309 14.7685 41.8097 14.7579C41.7034 14.6729 41.8522 14.7897 41.8628 14.8004C41.8097 14.7472 41.7353 14.7047 41.6716 14.6516C41.5441 14.5454 41.4272 14.4498 41.3103 14.3435C41.0766 14.131 40.8429 13.9079 40.6304 13.6636C40.4179 13.4298 40.2161 13.1961 40.0142 12.9517C39.9929 12.9199 39.9717 12.888 39.9398 12.8561C39.9504 12.8667 40.0567 13.0048 39.9717 12.8986C39.9186 12.8349 39.876 12.7711 39.8229 12.7074C39.7273 12.5799 39.6317 12.4418 39.5467 12.3143C39.1961 11.7937 38.888 11.2412 38.6118 10.6781C38.548 10.54 38.4843 10.4125 38.4205 10.2744C38.3993 10.2425 38.3887 10.2 38.3781 10.1682C38.3249 10.0513 38.3993 10.2107 38.3993 10.2213C38.3674 10.1257 38.3249 10.0407 38.293 9.95568C38.1762 9.66883 38.0699 9.37134 37.9637 9.07386C37.5175 7.76707 37.1881 6.4178 36.9225 5.05789C36.7738 4.30356 36.6357 3.53862 36.5188 2.77367C36.4657 2.41244 36.4126 2.06184 36.3594 1.70062C36.3382 1.52 36.3063 1.35002 36.2851 1.1694C36.2744 1.10566 36.2319 0.808176 36.2744 1.07378C36.2638 0.978164 36.2532 0.893172 36.2426 0.797554C36.2107 0.574444 36.1682 0.393826 36.0088 0.234462C35.8707 0.096346 35.6476 -0.00989168 35.4457 0.000732602C35.2439 0.0113569 35.0207 0.0750974 34.8826 0.234462C34.7445 0.40445 34.6171 0.616936 34.6489 0.818797C35.0208 3.61298 35.4458 6.43904 36.3063 9.12698C37.135 11.6874 38.4843 14.131 40.5985 15.8415C41.7991 16.8083 43.1802 17.552 44.6995 17.8389C44.7739 17.3183 44.8376 16.7977 44.912 16.2771C44.2533 16.3621 43.6477 16.5321 43.0315 16.7977C42.4896 17.0315 41.9903 17.3502 41.5228 17.722C40.6091 18.4339 39.8548 19.3582 39.2599 20.3462C38.633 21.3768 38.1762 22.5136 37.8681 23.6822C37.4962 25.0634 37.2837 26.4871 37.0712 27.9001C36.8375 29.4937 36.5931 31.0874 36.1044 32.6279C36.625 32.7023 37.1456 32.766 37.6662 32.8404C37.8681 29.6956 38.0487 26.4021 36.9863 23.3742C36.1045 20.8456 34.3727 18.4764 31.8547 17.4139C30.1654 16.7021 28.3168 16.6809 26.5107 16.7021C26.5851 17.2227 26.6488 17.7433 26.7232 18.2639C29.4005 17.892 31.6847 16.1603 33.2465 14.0354C34.9783 11.6768 35.7326 8.71264 36.0938 5.84409C36.3063 4.17608 36.3488 2.49743 36.2319 0.829419C36.2001 0.415072 35.8813 0.0113491 35.4351 0.0325977C35.0314 0.043222 34.6171 0.372577 34.6489 0.818797Z" fill="#231F20"/>
<path d="M5.14515 22.418C5.32576 23.2148 5.48512 24.0222 5.62324 24.8297C5.69761 25.2228 5.76139 25.6159 5.81451 26.009C5.84638 26.2108 5.87823 26.4021 5.89948 26.6039C5.9101 26.6889 5.92071 26.7845 5.93133 26.8695C5.95258 27.0183 5.93133 26.8802 5.93133 26.8589C5.94196 26.9226 5.9526 26.9864 5.9526 27.0608C6.16509 28.665 6.29256 30.2693 6.3563 31.8842C6.38818 32.5748 6.38822 33.2547 6.34572 33.9453C6.3351 34.1047 6.32443 34.264 6.30318 34.4234C6.29256 34.5084 6.28195 34.5934 6.27133 34.6784C6.26071 34.7634 6.29258 34.8271 6.27133 34.6571C6.28195 34.7102 6.25006 34.774 6.25006 34.8271C6.19694 35.1565 6.13319 35.4752 6.03758 35.7939C5.99508 35.9533 5.94197 36.102 5.88885 36.2614C5.8676 36.3251 5.82513 36.3995 5.81451 36.4633C5.857 36.3039 5.85697 36.3783 5.83572 36.4208C5.81448 36.4739 5.79322 36.5164 5.77197 36.5695C5.62323 36.8776 5.45325 37.1645 5.25139 37.4407C5.19827 37.5044 5.15578 37.5788 5.10266 37.6425C5.11328 37.6213 5.20892 37.5044 5.12393 37.6107C5.10268 37.6426 5.08141 37.6744 5.04954 37.6957C4.9433 37.8338 4.82641 37.9719 4.70954 38.11C4.48643 38.365 4.2421 38.62 3.99774 38.8643C3.73214 39.1299 3.45587 39.3743 3.16902 39.6187C3.02028 39.7462 2.87156 39.8736 2.7122 39.9905C2.68032 40.0224 2.63783 40.0543 2.60595 40.0755C2.5847 40.0861 2.45721 40.1924 2.55283 40.118C2.65907 40.0436 2.51033 40.1499 2.49971 40.1605C2.45721 40.1924 2.40411 40.2243 2.36162 40.2668C1.72416 40.7342 1.06545 41.1698 0.396123 41.5842C0.109267 41.7648 -0.0820112 42.1472 0.0348559 42.4872C0.141099 42.8059 0.449224 43.0928 0.799825 43.0716C1.46915 43.0291 2.13848 42.9972 2.81844 43.0291C3.26466 43.0503 3.71088 43.0928 4.14647 43.1459C4.39083 43.1672 4.62455 43.1884 4.8689 43.2097C4.94327 43.2097 5.01765 43.2203 5.09202 43.2309C5.11327 43.2309 5.1239 43.2309 5.14515 43.2416C5.23014 43.2522 5.20888 43.2522 5.08139 43.2309C5.10264 43.2415 5.1558 43.2416 5.17705 43.2416C5.34704 43.2734 5.51701 43.3053 5.687 43.3584C5.83573 43.4009 5.98449 43.454 6.1226 43.5072C6.1651 43.5178 6.19698 43.539 6.23948 43.5496C6.34572 43.5921 6.04821 43.4647 6.20757 43.539C6.29257 43.5815 6.36697 43.6134 6.45196 43.6559C6.74944 43.8046 7.02566 43.9746 7.29127 44.1659C7.32314 44.1871 7.35501 44.219 7.38688 44.2402C7.50375 44.3252 7.35502 44.219 7.34439 44.2084C7.37627 44.2615 7.49311 44.3252 7.53561 44.3677C7.67373 44.4846 7.80124 44.6014 7.92873 44.7183C8.17309 44.9521 8.41746 45.207 8.62994 45.462C8.73618 45.5895 8.84242 45.717 8.93804 45.8445C8.83179 45.6958 9.0549 45.9932 8.93804 45.8445C8.95928 45.8764 8.98054 45.8976 9.00179 45.9295C9.06554 46.0145 9.12925 46.0995 9.18237 46.1845C9.38423 46.4713 9.57546 46.7582 9.75607 47.0557C10.1492 47.7037 10.5104 48.3837 10.8398 49.0637C11.0204 49.4355 11.201 49.818 11.371 50.1898C11.4135 50.2748 11.4454 50.3598 11.4879 50.4448C11.5091 50.4873 11.5304 50.5404 11.5516 50.5829C11.6047 50.721 11.5516 50.5935 11.541 50.5617C11.6366 50.7742 11.711 50.9866 11.796 51.1991C12.4865 52.9415 13.0177 54.737 13.3896 56.575C13.464 56.9681 13.8996 57.1912 14.2608 57.1487C14.6858 57.0956 14.9089 56.7663 14.9514 56.3625C15.3232 53.1646 14.5158 49.988 14.707 46.7794C14.7176 46.5244 14.7495 46.2695 14.7708 46.0251C14.7814 45.9614 14.792 45.8976 14.792 45.8339C14.8026 45.7276 14.7601 46.057 14.7814 45.8976C14.7814 45.8658 14.792 45.8445 14.792 45.8126C14.8133 45.6745 14.8345 45.5364 14.8557 45.3983C14.9513 44.8564 15.0788 44.3146 15.2276 43.794C15.3126 43.5178 15.3976 43.2415 15.4932 42.9653C15.5357 42.8378 15.5782 42.721 15.6313 42.6041C15.6526 42.5403 15.6844 42.4766 15.7057 42.4129C15.7588 42.296 15.6844 42.466 15.6738 42.4766C15.6951 42.4341 15.7057 42.3916 15.7269 42.3491C15.9501 41.8498 16.205 41.3611 16.5131 40.9042C16.5875 40.7873 16.6725 40.6705 16.7575 40.5536C16.7681 40.5324 16.8637 40.4155 16.7681 40.5324C16.6831 40.6492 16.7788 40.5217 16.8 40.5005C16.8425 40.4474 16.885 40.3942 16.9381 40.3411C17.1187 40.1286 17.3206 39.9268 17.5331 39.7462C17.5862 39.693 17.6499 39.6505 17.7031 39.608C17.7774 39.5443 17.5543 39.7143 17.6393 39.6612C17.6712 39.6399 17.703 39.6187 17.7349 39.5868C17.8518 39.5124 17.9581 39.4381 18.0856 39.3637C18.2024 39.2999 18.3193 39.2362 18.4361 39.1831C18.4574 39.1724 18.5849 39.1193 18.4468 39.1724C18.3193 39.2256 18.4255 39.1831 18.4574 39.1724C18.5318 39.1406 18.6061 39.1193 18.6805 39.0981C18.9992 38.9918 19.2861 38.6837 19.2648 38.3331C19.2436 37.9719 19.0311 37.6851 18.6805 37.5682C17.3206 37.1113 15.897 36.9201 14.5264 36.4845C14.3671 36.4314 14.2077 36.3783 14.0483 36.3145C14.0165 36.3039 13.9845 36.2933 13.9527 36.2826C13.9314 36.272 13.7933 36.1976 13.9102 36.2614C14.027 36.3251 13.8889 36.2508 13.8677 36.2401C13.8252 36.2189 13.7721 36.1977 13.7296 36.1764C13.4215 36.0383 13.1346 35.8683 12.8584 35.6771C12.8159 35.6452 12.7734 35.6133 12.7309 35.5921C12.6353 35.5283 12.7522 35.6239 12.7734 35.6239C12.7415 35.6346 12.6034 35.4858 12.5715 35.4539C12.4334 35.3265 12.2953 35.199 12.1678 35.0609C12.0616 34.944 11.9553 34.8165 11.8491 34.689C11.796 34.6253 11.7428 34.5615 11.6897 34.4978C11.8278 34.6571 11.7429 34.5615 11.711 34.519C11.6791 34.4765 11.6472 34.4234 11.6047 34.3809C11.2223 33.8603 10.9035 33.3078 10.6167 32.7341C10.5423 32.5854 10.4785 32.4473 10.4148 32.2985C10.3829 32.2348 10.3511 32.171 10.3298 32.0967C10.3086 32.0648 10.298 32.0223 10.2767 31.9904C10.213 31.8417 10.3405 32.1392 10.2767 32.0011C10.1492 31.693 10.0323 31.3742 9.91544 31.0661C9.43735 29.7487 9.06551 28.3888 8.65116 27.0501C8.07745 25.244 7.40813 23.4698 6.53694 21.7911C6.3457 21.4193 5.79326 21.2812 5.44266 21.5043C5.06018 21.7486 4.95392 22.1948 5.15578 22.5986C5.36827 23.0023 5.57015 23.4166 5.76139 23.831C5.84638 24.0222 5.94199 24.2135 6.01636 24.4047C6.00573 24.3834 5.9526 24.2453 6.00572 24.3835C6.02697 24.426 6.04823 24.4791 6.06948 24.5216C6.11198 24.6278 6.15444 24.734 6.19694 24.8297C6.49442 25.5734 6.76004 26.3277 7.0044 27.0926C7.45062 28.4632 7.83311 29.855 8.30058 31.2149C8.7468 32.511 9.28865 33.7966 10.0642 34.9334C10.4786 35.5389 10.946 36.1552 11.5197 36.6226C12.1359 37.1432 12.8159 37.5151 13.5702 37.8019C15.0789 38.3862 16.715 38.5562 18.2449 39.0662C18.2449 38.5562 18.2449 38.0463 18.2449 37.5257C15.9288 38.2694 14.6008 40.5749 13.8677 42.7422C13.4852 43.8578 13.2515 45.0264 13.1346 46.1951C12.9859 47.7037 13.0921 49.2336 13.2196 50.7423C13.3683 52.6015 13.549 54.4608 13.3365 56.32C13.8571 56.2457 14.3777 56.1819 14.8983 56.1076C14.5583 54.4395 14.0802 52.7928 13.4852 51.1991C12.8796 49.5949 12.1678 48.0118 11.3072 46.5244C10.5742 45.2708 9.69236 44.049 8.56619 43.1247C7.94998 42.6253 7.31249 42.2216 6.56879 41.9348C5.91008 41.6692 5.21953 41.5948 4.51832 41.531C4.00836 41.4885 3.50904 41.4248 2.99907 41.3929C2.24475 41.3504 1.50103 41.3823 0.746704 41.4248C0.884819 41.9241 1.01229 42.4128 1.15041 42.9122C2.40407 42.1366 3.62587 41.2867 4.72017 40.2774C5.80385 39.2681 6.81319 38.11 7.35503 36.7182C7.87562 35.3796 7.9606 33.8816 7.92873 32.4473C7.89686 30.8218 7.76933 29.1962 7.5781 27.592C7.35499 25.7009 7.03626 23.8097 6.62191 21.9505C6.52629 21.5468 6.03761 21.2705 5.64451 21.398C5.27266 21.5786 5.0389 21.9824 5.14515 22.418Z" fill="#231F20"/>
<path d="M46.9411 43.8153C47.0899 44.3996 47.2068 44.9839 47.2918 45.5895C47.2811 45.5151 47.2705 45.4514 47.2599 45.377C47.4192 46.5563 47.4405 47.7675 47.2811 48.9468C47.2918 48.8724 47.3024 48.8087 47.313 48.7343C47.1855 49.6905 46.9411 50.6254 46.5693 51.5072C46.6012 51.4435 46.6224 51.3798 46.6543 51.316C46.4737 51.741 46.2718 52.1553 46.0275 52.5484C45.9106 52.7503 45.7725 52.9521 45.6344 53.1434C45.5706 53.2284 45.5069 53.3134 45.4432 53.3984C45.6131 53.1753 45.475 53.3559 45.4325 53.409C45.39 53.4621 45.3475 53.5152 45.305 53.5577C45.0075 53.919 44.6676 54.2483 44.317 54.5564C44.232 54.6308 44.1364 54.7052 44.0514 54.7795C43.9982 54.822 43.8176 54.9601 44.0407 54.7901C43.9876 54.822 43.9451 54.8645 43.892 54.907C43.6901 55.0557 43.4777 55.1939 43.2652 55.332C42.8614 55.5763 42.4577 55.7888 42.0221 55.9694C42.0859 55.9376 42.1496 55.9163 42.2133 55.8844C41.9052 56.0119 41.5971 56.1394 41.289 56.2775C41.0766 56.3732 40.8747 56.4582 40.7153 56.6175C40.3541 56.9575 40.4178 57.5418 40.7897 57.8287C40.9809 57.9774 41.2359 58.0199 41.459 58.0837C41.8415 58.2005 42.224 58.3387 42.5958 58.498C42.5321 58.4661 42.4683 58.4449 42.4046 58.413C43.4139 58.8486 44.3913 59.3905 45.2625 60.0492C45.2838 60.0704 45.305 60.081 45.3263 60.1023C45.1457 59.9642 45.22 60.0279 45.2625 60.0492C45.3156 60.0917 45.3581 60.1235 45.4112 60.166C45.5069 60.2404 45.6025 60.3254 45.6875 60.3998C45.8469 60.5485 46.0062 60.6972 46.1549 60.8672C46.2293 60.9416 46.2931 61.0266 46.3674 61.1116C46.3993 61.1541 46.4312 61.1966 46.463 61.2391C46.4949 61.2816 46.5481 61.3559 46.3993 61.1647C46.4206 61.1966 46.4418 61.2178 46.463 61.2497C46.5905 61.4197 46.7181 61.6003 46.8243 61.7915C47.1005 62.2271 47.3236 62.6946 47.5361 63.1727C47.5042 63.109 47.483 63.0452 47.4511 62.9815C48.2161 64.8088 48.5666 66.7743 48.9066 68.7186C48.9916 69.2392 49.0872 69.7598 49.1829 70.2804C49.2147 70.461 49.3953 70.6735 49.5441 70.7584C49.7034 70.8434 49.8735 70.8753 50.0541 70.8541C50.4472 70.8009 50.734 70.4716 50.7447 70.0679C50.7765 69.1861 50.8084 68.3042 50.8403 67.4118C50.8721 66.5619 50.8721 65.7013 50.989 64.8513C50.9784 64.9257 50.9678 64.9894 50.9571 65.0638C51.0634 64.3307 51.2227 63.5977 51.414 62.8858C51.5096 62.5352 51.6158 62.1846 51.7221 61.834C51.8177 61.5472 51.9027 61.2497 52.0196 60.9628C51.9877 61.0266 51.9664 61.0903 51.9345 61.1541C52.0833 60.8141 52.2746 60.4954 52.4977 60.1979C52.5295 60.1554 52.5614 60.1129 52.5933 60.0598C52.6676 59.9642 52.4551 60.2298 52.572 60.081C52.6464 59.9854 52.7208 59.9004 52.7951 59.8048C52.9332 59.6348 53.082 59.4754 53.2307 59.3161C53.5495 58.9867 53.8894 58.668 54.24 58.3599C54.325 58.2855 54.41 58.2218 54.495 58.1474C54.5375 58.1155 54.58 58.0837 54.6225 58.0412C54.6438 58.0199 54.665 57.9987 54.6969 57.988C54.665 58.0093 54.5375 58.1155 54.6332 58.0305C54.8031 57.9031 54.9837 57.7756 55.1537 57.6481C55.5043 57.4143 55.8656 57.1912 56.2586 57.0319C56.1949 57.0637 56.1312 57.085 56.0674 57.1169C56.0993 57.1062 56.1312 57.0956 56.163 57.0744C56.3543 57 56.5349 56.8937 56.6411 56.7131C56.7261 56.5538 56.758 56.3838 56.7367 56.2032C56.6836 55.8101 56.3543 55.5126 55.9506 55.5126C55.7699 55.5126 55.5893 55.502 55.4193 55.4807C55.4937 55.4913 55.5575 55.502 55.6318 55.5126C55.2812 55.4595 54.9306 55.3639 54.6013 55.2257C54.665 55.2576 54.7288 55.2789 54.7925 55.3107C54.5907 55.2257 54.3994 55.1301 54.2188 55.0133C54.1231 54.9601 54.0382 54.8964 53.9426 54.8433C53.9001 54.8114 53.8469 54.7795 53.8044 54.7476C53.7832 54.737 53.7619 54.7158 53.7407 54.7051C53.7301 54.6945 53.7194 54.6839 53.7088 54.6839C53.6345 54.6202 53.8151 54.7689 53.8044 54.7583C53.4432 54.4608 53.1032 54.1421 52.7845 53.7915C52.7101 53.6958 52.6252 53.6108 52.5508 53.5152C52.5189 53.4727 52.4764 53.4196 52.4445 53.3771C52.3595 53.2709 52.5295 53.4834 52.4977 53.4409C52.4764 53.409 52.4552 53.3877 52.4339 53.3559C52.2745 53.154 52.1364 52.9415 51.9877 52.729C51.6902 52.2828 51.4246 51.8153 51.1803 51.3373C50.8934 50.7848 50.6278 50.2111 50.3834 49.6374C50.4153 49.7011 50.4365 49.7649 50.4684 49.8286C49.7566 48.1393 49.2041 46.3757 48.7473 44.5908C48.641 44.1765 48.5454 43.7728 48.4498 43.3584C48.3542 42.9547 47.8654 42.6785 47.4723 42.8059C47.0686 42.9759 46.8349 43.3797 46.9411 43.8153C47.1642 44.7821 47.4086 45.7489 47.6955 46.7051C48.0248 47.8206 48.4073 48.9362 48.8429 50.0198C49.3104 51.1566 49.831 52.2828 50.4897 53.324C51.074 54.2589 51.7752 55.1726 52.6358 55.8632C53.0501 56.1925 53.4857 56.5007 53.9744 56.7131C54.5163 56.9469 55.0475 57.0956 55.6425 57.1487C55.7593 57.1594 55.8762 57.1594 55.9824 57.1594C55.908 56.6388 55.8443 56.1182 55.7699 55.5976C54.8987 55.9376 54.1444 56.4688 53.4219 57.0531C52.6995 57.6375 52.0196 58.2962 51.4459 59.0292C51.159 59.3905 50.8934 59.7517 50.6809 60.166C50.4365 60.6547 50.2772 61.186 50.1178 61.7065C49.7354 62.9708 49.4272 64.2564 49.3316 65.5738C49.2785 66.3175 49.2679 67.0718 49.2466 67.8155C49.2254 68.5805 49.1935 69.3348 49.1722 70.0997C49.6928 70.0254 50.2134 69.9616 50.734 69.8872C50.3515 67.773 50.0647 65.6269 49.3847 63.5871C49.0341 62.5565 48.5985 61.5259 47.9611 60.6335C47.6423 60.1767 47.2812 59.7517 46.8774 59.3692C46.41 58.9442 45.8893 58.5618 45.3581 58.2218C44.7738 57.8393 44.1576 57.4993 43.5201 57.2125C43.1589 57.0425 42.7871 56.8938 42.4046 56.7556C42.0965 56.6494 41.7884 56.5644 41.4803 56.4688C41.544 56.5007 41.6078 56.5219 41.6715 56.5538C41.7671 56.6494 41.8521 56.7344 41.9477 56.83C41.9796 56.8937 42.0009 56.9575 42.0327 57.0212C42.0434 57.0956 42.054 57.1594 42.0646 57.2337C42.054 57.3081 42.0434 57.3718 42.0327 57.4462C42.0009 57.51 41.9796 57.5737 41.9477 57.6375C41.884 57.7331 41.799 57.8499 41.7034 57.8924C41.7246 57.8818 41.7353 57.8712 41.7565 57.8606C41.8096 57.8287 41.8627 57.8074 41.9159 57.7756C42.0646 57.7012 42.224 57.6374 42.3833 57.5737C42.3196 57.6056 42.2559 57.6268 42.1921 57.6587C42.6277 57.4781 43.0739 57.2975 43.4989 57.0744C43.9876 56.8194 44.4444 56.5219 44.88 56.1925C45.8043 55.4807 46.6012 54.6414 47.228 53.664C48.4392 51.8047 48.9704 49.5524 48.981 47.3531C48.981 46.0357 48.8004 44.7077 48.4817 43.4328C48.3754 43.0291 47.908 42.7422 47.5043 42.8803C47.0793 42.9759 46.8243 43.3797 46.9411 43.8153Z" fill="#231F20"/>
<path d="M57.7037 15.629C57.7887 16.0221 57.8631 16.4152 57.9269 16.8083C57.9587 16.9996 57.9906 17.2014 58.0225 17.4033C58.0331 17.467 58.0862 17.7645 58.0437 17.5308C58.0649 17.6477 58.0756 17.7645 58.0862 17.8708C58.1818 18.6782 58.2562 19.4963 58.2987 20.3144C58.3837 21.9611 58.373 23.6185 58.2562 25.2546C58.2243 25.6584 58.1924 26.0621 58.1606 26.4764C58.1393 26.6571 58.1287 26.8483 58.1074 27.0289C58.0968 27.1139 58.0862 27.1989 58.0756 27.2945C58.0756 27.337 58.065 27.3795 58.065 27.4114C58.0543 27.4751 58.065 27.4433 58.0756 27.3158C58.0756 27.3476 58.065 27.3795 58.065 27.4114C57.9693 28.0913 57.8206 28.7607 57.64 29.4194C57.5444 29.7487 57.4381 30.0781 57.3213 30.3968C57.2575 30.5562 57.2044 30.7155 57.1406 30.8749C57.13 30.9174 57.1088 30.9493 57.0981 30.9918C57.1619 30.7899 57.13 30.9068 57.1088 30.9599C57.0663 31.0449 57.0344 31.1405 56.9919 31.2255C56.705 31.8523 56.3757 32.4473 55.9826 33.021C55.8763 33.1804 55.7595 33.3397 55.6426 33.4885C55.6108 33.531 55.547 33.5841 55.6745 33.446C55.6426 33.4885 55.6001 33.531 55.5683 33.5735C55.5045 33.6478 55.4514 33.7222 55.3876 33.7966C55.1433 34.0834 54.8883 34.349 54.6121 34.6146C54.474 34.7421 54.3358 34.8696 54.1871 34.9971C54.1127 35.0609 54.0277 35.114 53.964 35.1777C54.1021 35.0396 54.049 35.114 53.9959 35.1565C53.9534 35.1883 53.9109 35.2202 53.8577 35.2521C53.5496 35.4752 53.2203 35.6877 52.8803 35.8683C52.5828 36.0277 52.4128 36.442 52.5191 36.7714C52.5616 36.8989 52.6253 37.0263 52.721 37.122C52.8378 37.2495 53.1034 37.377 53.284 37.3557C53.9959 37.2707 54.7077 37.2282 55.4195 37.2495C55.7701 37.2601 56.1101 37.2813 56.4607 37.3132C56.5457 37.3238 56.6413 37.3345 56.7263 37.3451C56.79 37.3557 57.1088 37.3982 56.8325 37.3557C57.0131 37.3876 57.1938 37.4088 57.3744 37.4407C58.065 37.5576 58.7555 37.7276 59.4248 37.94C59.7648 38.0463 60.1048 38.1632 60.4342 38.3013C60.5085 38.3331 60.5723 38.3544 60.6466 38.3863C60.6891 38.4075 60.7317 38.4181 60.7742 38.4394C60.551 38.3544 60.6998 38.4075 60.7529 38.4288C60.9229 38.5031 61.0823 38.5775 61.2522 38.6519C61.9003 38.96 62.5272 39.3 63.1221 39.6824C63.4196 39.8737 63.7065 40.0649 63.9827 40.2774C64.0571 40.3305 64.1314 40.3836 64.2058 40.4368C64.2376 40.4686 64.2801 40.4899 64.312 40.5217C64.142 40.3942 64.2164 40.4474 64.2589 40.4792C64.4183 40.6067 64.567 40.7236 64.7158 40.8511C65.247 41.2973 65.7569 41.786 66.2244 42.296C66.4687 42.5616 66.7025 42.8378 66.9362 43.1247C66.9787 43.1884 67.0318 43.2416 67.0743 43.3053C66.9043 43.1034 67.1062 43.3478 67.1381 43.4009C67.2443 43.5497 67.3506 43.6984 67.4568 43.8471C67.903 44.4952 68.3068 45.1752 68.6468 45.8764C68.7317 46.057 68.8167 46.2376 68.8911 46.4076C68.9548 46.5563 68.8167 46.227 68.8805 46.3863C68.9017 46.4395 68.923 46.5032 68.9442 46.5563C68.9761 46.6413 69.0079 46.7263 69.0398 46.8113C69.1886 47.1938 69.3161 47.5869 69.4223 47.98C69.5392 48.3837 69.996 48.6706 70.3998 48.5324C70.591 48.4687 70.7822 48.3518 70.8779 48.1712C70.9841 47.9694 70.9947 47.7781 70.9628 47.555C70.9628 47.5444 70.9309 47.3425 70.9522 47.47C70.9734 47.5975 70.9416 47.4063 70.9416 47.3957C70.931 47.3213 70.9203 47.2469 70.9097 47.1725C70.8885 47.0026 70.8672 46.8326 70.8566 46.6626C70.8353 46.397 70.8141 46.1314 70.8035 45.8658C70.7928 45.4514 70.8035 45.0264 70.7928 44.6121C70.7928 44.0915 70.761 43.5815 70.7079 43.0609C70.6654 42.6678 70.6122 42.2747 70.5591 41.8816C70.5273 41.6479 70.4954 41.4142 70.4635 41.1698C70.4529 41.1273 70.4529 41.0848 70.4422 41.0423C70.4104 40.8405 70.4635 41.1698 70.4422 41.0423C70.4316 40.9255 70.4104 40.8192 70.3998 40.7024C70.3041 39.948 70.2192 39.1831 70.1979 38.4181C70.1873 38.025 70.1873 37.6426 70.2191 37.2495C70.2298 37.0689 70.2404 36.8776 70.2722 36.697C70.2298 36.9201 70.2935 36.5908 70.2935 36.5483C70.3148 36.442 70.3254 36.3464 70.3466 36.2402C70.4104 35.9108 70.506 35.5921 70.6122 35.284C70.6547 35.1459 70.7079 35.0077 70.761 34.8696C70.7822 34.8059 70.8035 34.7421 70.8354 34.689C70.846 34.6465 70.8672 34.6146 70.8779 34.5721C70.9522 34.4021 70.846 34.6571 70.8779 34.5828C71.1328 34.0197 71.4197 33.4778 71.7596 32.9679C71.8553 32.8298 71.9934 32.681 72.0784 32.5323C72.0678 32.5429 71.9615 32.681 72.0465 32.5748C72.0784 32.5323 72.1103 32.5004 72.1421 32.4579C72.1953 32.3942 72.2484 32.3304 72.3015 32.2667C72.5246 32.0117 72.7584 31.7673 73.0133 31.5336C73.1408 31.4167 73.2789 31.2999 73.417 31.183C73.5233 31.098 73.3852 31.2149 73.3746 31.2149C73.4171 31.1936 73.4489 31.1511 73.4914 31.1299C73.5658 31.0768 73.6402 31.0236 73.7039 30.9705C73.9908 30.7687 74.2883 30.5987 74.607 30.4393C74.9045 30.2906 75.0744 29.855 74.9682 29.5362C74.8513 29.1856 74.5645 28.9732 74.2032 28.9519C73.8314 28.9307 73.4595 28.8988 73.0877 28.8563C73.0027 28.8457 72.9177 28.835 72.8327 28.8244C72.7902 28.8244 72.7477 28.8032 72.7052 28.8032C72.9177 28.7925 72.7796 28.8138 72.7158 28.8032C72.5246 28.7713 72.3334 28.75 72.1528 28.7182C71.4303 28.5907 70.7185 28.4313 70.0279 28.2294C69.6773 28.1232 69.3373 28.017 68.9973 27.8895C68.838 27.8257 68.6786 27.7726 68.5086 27.7089C68.4874 27.6982 68.2643 27.6132 68.2643 27.6132C68.2961 27.6239 68.328 27.6451 68.3599 27.6557C68.328 27.6451 68.2961 27.6239 68.2643 27.6132C68.2218 27.592 68.1687 27.5707 68.1262 27.5495C67.4568 27.252 66.8194 26.912 66.2032 26.5189C65.8951 26.3171 65.587 26.1152 65.3001 25.8921C65.2682 25.8709 65.247 25.8496 65.2151 25.8284C65.247 25.8602 65.3957 25.9559 65.2151 25.8284C65.1513 25.7752 65.077 25.7221 65.0132 25.669C64.8645 25.5521 64.7264 25.4246 64.5883 25.2971C64.3227 25.0528 64.0571 24.7978 63.8127 24.5322C63.5577 24.256 63.3346 23.9585 63.0902 23.6822C63.239 23.8522 63.0584 23.6398 63.0265 23.5866C62.9734 23.5123 62.9203 23.4485 62.8672 23.3742C62.7503 23.2148 62.644 23.0554 62.5378 22.8961C62.3253 22.5773 62.1341 22.248 61.9428 21.9186C61.571 21.2599 61.2416 20.58 60.9335 19.8788C60.9229 19.8469 60.9017 19.815 60.891 19.7831C60.8804 19.7513 60.8592 19.7194 60.8485 19.6875C60.891 19.7938 60.9016 19.8044 60.8698 19.73C60.8273 19.6344 60.7848 19.5282 60.7423 19.4325C60.6679 19.2413 60.5935 19.0501 60.5192 18.8588C60.3704 18.4657 60.2217 18.062 60.0836 17.6689C59.7967 16.8508 59.5311 16.0328 59.2655 15.2147C59.138 14.8216 58.7024 14.5241 58.2881 14.6622C57.8631 14.7791 57.5656 15.2041 57.7037 15.629C58.6599 18.6145 59.6586 21.6955 61.5179 24.256C62.4634 25.5627 63.6002 26.6889 64.9389 27.6132C66.2032 28.4844 67.6162 29.1431 69.0717 29.6212C70.7291 30.1631 72.4609 30.4605 74.2032 30.5562C74.0651 30.0568 73.9376 29.5681 73.7995 29.0688C71.3878 30.2693 69.7092 32.6598 68.9761 35.2202C68.5299 36.782 68.5511 38.4075 68.7317 40.0012C68.7848 40.4474 68.838 40.883 68.9017 41.3292C68.9124 41.4354 68.9336 41.531 68.9442 41.6373C68.9548 41.6798 68.9549 41.7223 68.9655 41.7648C68.9974 41.9666 68.9442 41.6373 68.9655 41.7754C68.9974 41.9773 69.0186 42.1898 69.0505 42.3916C69.1248 43.0185 69.1992 43.6453 69.2098 44.2721C69.2204 44.7502 69.2098 45.2283 69.2205 45.7064C69.2417 46.4607 69.3267 47.215 69.4329 47.9694C69.9429 47.8313 70.4529 47.6825 70.9735 47.5444C70.1554 44.6546 68.4555 42.041 66.2244 40.0543C63.9933 38.0569 61.231 36.6014 58.2987 35.9958C56.6626 35.6558 54.9627 35.5496 53.3053 35.7621C53.4434 36.2614 53.5709 36.7501 53.709 37.2495C56.3226 35.8152 58.0862 33.2335 59.0105 30.4499C59.4886 29.005 59.7011 27.507 59.818 25.9877C59.9561 24.3091 59.9986 22.6305 59.9348 20.9518C59.8605 19.0288 59.6586 17.1058 59.2655 15.2253C59.1805 14.8216 58.6812 14.5454 58.2881 14.6729C57.8312 14.7897 57.6187 15.1935 57.7037 15.629Z" fill="#231F20"/>
</svg>
