<svg width="30" height="30" viewBox="0 0 30 30" fill="none" xmlns="http://www.w3.org/2000/svg">
<circle cx="15" cy="15" r="15" fill="black"/>
<path d="M22.3163 11.3068C22.3275 11.4683 22.3275 11.6299 22.3275 11.7929C22.3275 16.7605 18.5531 22.4896 11.6515 22.4896V22.4866C9.61273 22.4896 7.61633 21.9045 5.90002 20.8012C6.19648 20.837 6.49441 20.8548 6.7931 20.8556C8.48265 20.8571 10.1239 20.2891 11.4531 19.2432C9.84752 19.2126 8.43956 18.1637 7.9477 16.6324C8.51014 16.7411 9.08967 16.7188 9.64171 16.5677C7.89123 16.2133 6.63187 14.6724 6.63187 12.8828C6.63187 12.8664 6.63187 12.8507 6.63187 12.8351C7.15344 13.1262 7.73743 13.2877 8.33479 13.3056C6.68611 12.2016 6.1779 10.0041 7.1735 8.28591C9.07852 10.6346 11.8892 12.0624 14.9065 12.2135C14.6041 10.9078 15.0172 9.53953 15.992 8.62165C17.5033 7.1983 19.8801 7.27126 21.3007 8.78468C22.141 8.61867 22.9464 8.30973 23.6834 7.87201C23.4033 8.74225 22.8171 9.48146 22.034 9.9512C22.7777 9.86336 23.5044 9.66385 24.1887 9.35938C23.6849 10.1157 23.0504 10.7745 22.3163 11.3068Z" fill="#E8F5E2"/>
</svg>
