<svg width="185" height="46" viewBox="0 0 185 46" fill="none" xmlns="http://www.w3.org/2000/svg">
<g clip-path="url(#clip0_10_181)">
<path fill-rule="evenodd" clip-rule="evenodd" d="M102.768 29.1097C102.768 29.4621 102.709 29.8734 102.651 30.1671C102.128 31.6945 100.732 32.6932 99.1039 32.6932C97.65 32.6932 96.5451 31.8708 96.5451 30.1084C96.5451 27.406 99.4528 26.701 102.826 26.701V29.1097H102.768ZM108.002 24.4099C108.002 20.0039 106.141 16.0679 99.8018 16.0679C96.5451 16.0679 93.9282 17.0078 92.5325 17.8303L93.5793 21.4138C95.2076 20.4739 97.0104 19.9452 98.8713 19.8864C102.128 19.8864 102.651 21.7076 102.651 22.8825V23.1762C95.6147 23.1762 91.1949 25.6436 91.1949 30.6371C91.1949 33.6919 93.4629 36.5705 97.4174 36.5705C99.8018 36.5705 101.837 35.6305 103.058 34.0444H103.175C103.175 34.0444 103.989 37.4517 108.409 36.1593C108.176 34.7493 108.06 33.2219 108.06 31.4595V24.4099H108.002ZM0.532471 10.017L5.88266 32.1057C6.75497 35.6893 8.26698 37.0405 12.6867 36.1593L15.5363 24.4099C16.2341 21.4726 16.7575 19.4164 17.2227 16.4204H17.2809C17.6298 19.4164 18.0951 21.4726 18.6766 24.4099L20.4212 32.5757C21.0609 35.3956 22.6892 37.158 27.0508 36.1593L33.8548 10.0757H28.3302L26.004 21.3551C25.3643 24.6449 24.7828 27.2298 24.3757 30.2258C23.9686 27.2298 23.4452 24.7624 22.8055 21.5901L20.4212 10.0757H14.6639L12.047 21.2963C11.3492 24.7037 10.6513 27.4648 10.1861 30.3433H10.1279C9.66269 27.641 9.08114 24.1749 8.44145 20.8851L6.34789 10.017H0.532471ZM43.9737 29.1097C43.9737 29.4621 43.9737 29.8734 43.8574 30.1671C43.334 31.6945 41.9383 32.6932 40.31 32.6932C38.8561 32.6932 37.7512 31.8708 37.7512 30.1084C37.7512 27.406 40.6589 26.701 44.0318 26.701V29.1097H43.9737ZM49.2657 24.4099C49.2657 20.0039 47.4048 16.0679 41.066 16.0679C37.8093 16.0679 35.1924 17.0078 33.7967 17.8303L34.8435 21.4138C36.4718 20.4739 38.2746 19.9452 40.1355 19.8864C43.3921 19.8864 43.9155 21.7076 43.9155 22.8825V23.1762C36.8789 23.1762 32.4591 25.6436 32.4591 30.6371C32.4591 33.6919 34.7272 36.5705 38.6816 36.5705C41.066 36.5705 43.1014 35.6305 44.3226 34.0444H44.4389C44.4389 34.0444 45.2531 37.4517 49.6728 36.1593C49.4402 34.7493 49.3239 33.2219 49.3239 31.4595V24.4099H49.2657ZM57.3492 30.5783V10.017H52.1153V36.1005H57.3492V30.5783ZM124.11 10.0757V29.2859C124.11 31.9295 124.575 33.8094 125.68 34.9256C126.611 35.9243 128.123 36.5705 129.926 36.5705C131.496 36.5705 133.008 36.2768 133.706 35.983L133.648 31.812C133.124 31.9882 132.484 32.047 131.67 32.047C129.867 32.047 129.286 30.9308 129.286 28.5222V21.2376H133.88V16.2441H129.286V10.017L124.11 10.0757ZM110.56 16.5379V36.1593H115.969V26.1136C115.969 25.5849 116.027 25.1149 116.085 24.6449C116.492 22.53 118.062 21.1789 120.388 21.1789C121.028 21.1789 121.435 21.2376 121.959 21.2963V16.1266C121.551 16.0679 121.144 16.0091 120.795 16.0091C118.76 16.0091 116.492 17.3016 115.503 20.1802H115.387V16.4791L110.56 16.5379ZM60.4313 16.5379V36.1593H65.6652V24.6449C65.6652 24.1162 65.7234 23.5287 65.8978 23.0587C66.3049 21.8838 67.4098 20.5326 69.0963 20.5326C71.248 20.5326 72.2366 22.3538 72.2366 24.9386V36.1005H77.5287V24.4687C77.5287 23.9399 77.5868 23.2937 77.7613 22.8825C78.1684 21.4726 79.5059 20.4739 80.9598 20.4739C83.1115 20.4739 84.1583 22.2363 84.1583 25.3499V36.1005H89.4503V24.5862C89.4503 18.5352 86.3681 16.0679 82.937 16.0679C81.3669 16.0679 80.2038 16.4791 79.0988 17.1253C78.1684 17.7128 77.3542 18.5352 76.6564 19.5927H76.5982C75.7259 17.4191 73.5742 16.0091 71.248 16.0679C68.9219 15.9504 66.712 17.1253 65.6071 19.1815H65.5489V16.5379H60.4313Z" fill="white"/>
<path fill-rule="evenodd" clip-rule="evenodd" d="M162.201 15.6567C163.248 15.6567 164.12 15.0692 164.237 14.423L165.225 2.61488C165.225 1.43995 163.888 0.5 162.201 0.5C160.515 0.5 159.177 1.43995 159.177 2.61488L160.224 14.423C160.282 15.1279 161.154 15.6567 162.201 15.6567ZM155.862 19.3577C156.386 18.4178 156.328 17.4191 155.804 16.9491L146.209 10.1932C145.22 9.60574 143.708 10.3107 142.894 11.7794C142.022 13.248 142.196 14.9517 143.185 15.4804L153.827 20.4739C154.467 20.7089 155.397 20.2389 155.862 19.3577ZM168.482 19.299C169.005 20.2389 169.878 20.7089 170.575 20.4151L181.16 15.4217C182.148 14.8342 182.323 13.1893 181.45 11.7206C180.578 10.252 179.124 9.547 178.136 10.1345L168.54 16.9491C168.017 17.4191 167.959 18.4178 168.482 19.299ZM162.201 30.3433C163.248 30.3433 164.12 30.9308 164.237 31.577L165.225 43.3851C165.225 44.5601 163.888 45.5 162.201 45.5C160.515 45.5 159.177 44.5601 159.177 43.3851L160.224 31.577C160.282 30.8721 161.154 30.3433 162.201 30.3433ZM168.482 26.701C169.005 25.7611 169.878 25.2911 170.575 25.5261L181.16 30.5196C182.148 31.107 182.323 32.752 181.45 34.2206C180.578 35.6893 179.124 36.3943 178.136 35.8068L168.54 29.0509C168.017 28.6397 167.959 27.5822 168.482 26.701ZM155.862 26.701C156.386 27.5822 156.328 28.6397 155.804 29.1097L146.209 35.8655C145.22 36.453 143.708 35.748 142.894 34.2794C142.022 32.8107 142.196 31.1658 143.185 30.5783L153.827 25.5849C154.467 25.2911 155.397 25.7611 155.862 26.701ZM183.428 34.8081H183.544C183.66 34.8081 183.776 34.7493 183.776 34.6906C183.776 34.5731 183.718 34.5731 183.602 34.5731H183.486V34.8081H183.428ZM183.428 35.3368H183.195V34.3969H183.544C183.718 34.3969 183.776 34.3969 183.893 34.4556C183.951 34.5144 184.009 34.5731 184.009 34.6319C184.009 34.7493 183.951 34.8081 183.835 34.8668C183.951 34.9256 184.009 34.9843 184.009 35.1018C184.009 35.2781 184.067 35.2781 184.067 35.3368H183.835C183.777 35.2781 183.776 35.2193 183.776 35.1018C183.776 34.9843 183.718 34.9843 183.602 34.9843H183.486L183.428 35.3368ZM183.544 34.1031C183.137 34.1031 182.846 34.4556 182.846 34.8668C182.846 35.2781 183.137 35.6305 183.544 35.6305C183.951 35.6305 184.242 35.2781 184.242 34.8668C184.3 34.4556 183.951 34.1031 183.544 34.1031ZM183.544 33.9269C184.067 33.9269 184.474 34.3381 184.474 34.8668C184.474 35.3956 184.067 35.8068 183.544 35.8068C183.02 35.8068 182.555 35.3956 182.555 34.8668C182.613 34.3381 183.02 33.9269 183.544 33.9269Z" fill="white"/>
</g>
<defs>
<clipPath id="clip0_10_181">
<rect width="184" height="45" fill="white" transform="translate(0.532471 0.5)"/>
</clipPath>
</defs>
</svg>
